# xmcd
#
# Track frame offsets: 
#        150
#        16768
#        39668
#        59583
#
# Disc length: 1045 seconds
#
# Revision: 1
# Processed by: cddbd v1.5.2PL0 Copyright (c) Steve Scherf et al.
# Submitted via: ExactAudioCopy v0.99pb4
#
DISCID=2c041304
DTITLE=Squeeze - Third Rail
DYEAR=1993
DGENRE=Pop
TTITLE0=Third Rail
TTITLE1=The Truth (Live)
TTITLE2=Melody Motel (Live)
TTITLE3=Walk A Straight Line (Live)
EXTD=
EXTT0=
EXTT1=
EXTT2=
EXTT3=
PLAYORDER=
